<svg width="116" height="28" viewBox="0 0 116 28" fill="none" xmlns="http://www.w3.org/2000/svg">
<path d="M11.1191 5.78516C14.0728 6.91606 16.2157 9.72447 16.3828 13.0283L16.3936 13.3555C16.3931 16.4286 14.4775 19.929 12.5 22.7188C10.5265 25.5028 8.50972 27.553 8.3418 27.7207L8.2207 27.8408L8.1123 27.7598C8.07177 27.7154 7.98503 27.6247 7.86426 27.499C7.72235 27.3513 7.52868 27.1485 7.2959 26.8975C6.85492 26.422 6.27231 25.7722 5.62891 24.9922C6.18823 24.7946 6.69803 24.5329 7.11621 24.2803C7.47436 24.0639 7.76891 23.854 7.97363 23.6982C8.07597 23.6204 8.15594 23.5552 8.21094 23.5098C8.23841 23.4871 8.26003 23.4693 8.27441 23.457C8.28011 23.4522 8.28704 23.4458 8.29102 23.4424L8.29297 23.4414C8.29357 23.4409 8.29492 23.4403 8.2959 23.4395L8.30176 23.4336L8.30273 23.4316C9.75323 22.1401 10.4341 20.9487 10.75 20.0693C10.9078 19.6298 10.9747 19.2694 11.001 19.0166C11.0141 18.8904 11.0168 18.7908 11.0166 18.7217C11.0165 18.6869 11.0156 18.6594 11.0146 18.6406C11.0143 18.6346 11.013 18.6284 11.0127 18.623V18.6211H11.0137L11.0127 18.6152L11.1191 8.64648V5.78516ZM5.44238 17.6611C5.44209 17.664 5.44175 17.6688 5.44043 17.6797C5.43825 17.6976 5.43387 17.7251 5.42773 17.7598C5.41529 17.83 5.393 17.9315 5.35449 18.0518C5.27724 18.2929 5.13575 18.6075 4.87793 18.9023C4.42912 19.4156 3.60077 19.8992 2.05273 19.7891C0.935495 17.723 0.120123 15.4858 0.120117 13.3545C0.120117 9.87426 2.34304 6.89107 5.44238 5.74902V17.6611ZM8.29883 0.120117C9.39691 0.120117 10.2871 1.00891 10.2871 2.10547C10.2871 3.20201 9.3969 4.09082 8.29883 4.09082C7.20092 4.09063 6.31155 3.20189 6.31152 2.10547C6.31152 1.00902 7.2009 0.120304 8.29883 0.120117Z" fill="#22AAA1" stroke="#22AAA1" stroke-width="0.239408"/>
<path d="M25.4562 4.99158C25.4562 4.99158 25.4562 13.8123 25.4562 19.0672C25.4562 20.6254 24.3651 21.8099 22.8288 22.07C21.6862 22.2633 20.0137 21.1316 20.0137 21.1316" stroke="#22AAA1" stroke-width="1.75"/>
<path d="M30.5723 11.6603C30.5723 11.6603 30.5723 16.9152 30.5723 18.6042C30.5723 20.2933 32.5365 21.2317 34.3258 21.2317C36.115 21.2317 38.0792 20.3935 38.0792 18.6042C38.0792 15.7891 38.0792 11.6603 38.0792 11.6603" stroke="#22AAA1" stroke-width="1.75"/>
<path d="M53.0545 7.89172V21.4043M51.1777 12.3959H56.2449" stroke="#22AAA1" stroke-width="1.75"/>
<path d="M115.177 5.84216L109.359 13.9122M109.359 13.9122L103.541 6.02984M109.359 13.9122V21.4191" stroke="#22AAA1" stroke-width="1.75"/>
<path d="M87.8916 3.76855C88.8073 1.15882 91.137 -0.155751 93.8975 0.0146484C95.0425 0.0853848 96.2336 0.868465 97.1914 1.70117C98.5947 2.9213 99.2478 4.76215 99.1992 6.62109C99.191 6.93696 99.176 7.24422 99.1523 7.52148C98.675 13.1121 93.334 20.6592 93.334 20.6592C93.334 20.6592 87.9662 13.0565 87.5166 7.52148C87.398 6.06069 87.4064 5.15144 87.8916 3.76855Z" fill="#DA251C"/>
<path d="M49.5013 13.6788L48.1572 14.0759C48.0726 13.8421 47.9479 13.6148 47.7831 13.3942C47.6225 13.1692 47.4027 12.9839 47.1237 12.8383C46.8447 12.6927 46.4875 12.6199 46.0522 12.6199C45.4562 12.6199 44.9595 12.7633 44.5622 13.0501C44.1691 13.3325 43.9725 13.6921 43.9725 14.1289C43.9725 14.5171 44.1078 14.8238 44.3783 15.0488C44.6488 15.2738 45.0715 15.4613 45.6464 15.6113L47.092 15.982C47.9627 16.2026 48.6116 16.5401 49.0385 16.9946C49.4654 17.4446 49.6789 18.0248 49.6789 18.7352C49.6789 19.3176 49.5182 19.8382 49.197 20.2971C48.88 20.7559 48.4361 21.1177 47.8655 21.3824C47.2949 21.6472 46.6313 21.7795 45.8746 21.7795C44.8813 21.7795 44.0592 21.5545 43.4082 21.1045C42.7573 20.6544 42.3452 19.997 42.1719 19.1322L43.5921 18.7616C43.7274 19.3087 43.9831 19.7191 44.3593 19.9926C44.7397 20.2662 45.2364 20.4029 45.8493 20.4029C46.5467 20.4029 47.1004 20.2485 47.5105 19.9397C47.9247 19.6264 48.1318 19.2514 48.1318 18.8146C48.1318 18.4616 48.0135 18.166 47.7767 17.9277C47.54 17.6851 47.1765 17.5042 46.6862 17.385L45.0631 16.9879C44.1712 16.7673 43.516 16.4254 43.0976 15.9621C42.6833 15.4944 42.4762 14.9098 42.4762 14.2083C42.4762 13.6347 42.6305 13.1273 42.9391 12.6861C43.2518 12.2449 43.6767 11.8985 44.2135 11.647C44.7545 11.3955 45.3674 11.2698 46.0522 11.2698C47.0159 11.2698 47.7725 11.4904 48.322 11.9316C48.8757 12.3728 49.2688 12.9552 49.5013 13.6788Z" fill="#22AAA1"/>
<path d="M69.0981 9.29514C69.0096 8.53876 68.6507 7.95156 68.0214 7.53356C67.3921 7.11556 66.6202 6.90656 65.7058 6.90656C65.0371 6.90656 64.4521 7.01603 63.9506 7.23499C63.454 7.45394 63.0656 7.755 62.7854 8.13817C62.51 8.52134 62.3724 8.95676 62.3724 9.44443C62.3724 9.85248 62.4682 10.2033 62.66 10.4969C62.8567 10.7855 63.1074 11.0269 63.4122 11.2209C63.717 11.41 64.0366 11.5668 64.3709 11.6912C64.7053 11.8106 65.0125 11.9077 65.2928 11.9823L66.8267 12.4003C67.22 12.5048 67.6576 12.6491 68.1394 12.8332C68.6262 13.0174 69.0908 13.2686 69.5333 13.5871C69.9807 13.9006 70.3494 14.3037 70.6395 14.7963C70.9295 15.289 71.0746 15.8936 71.0746 16.6102C71.0746 17.4362 70.8607 18.1827 70.433 18.8495C70.0102 19.5163 69.3907 20.0463 68.5745 20.4394C67.7633 20.8325 66.7776 21.0291 65.6173 21.0291C64.5356 21.0291 63.599 20.8524 62.8075 20.4991C62.0208 20.1458 61.4014 19.6531 60.9491 19.0212C60.5017 18.3892 60.2485 17.6552 60.1895 16.8192H62.0774C62.1266 17.3964 62.3183 17.8741 62.6526 18.2523C62.9919 18.6255 63.4196 18.9042 63.9358 19.0883C64.457 19.2675 65.0175 19.3571 65.6173 19.3571C66.3154 19.3571 66.9423 19.2426 67.4978 19.0137C68.0534 18.7798 68.4934 18.4564 68.8179 18.0433C69.1424 17.6253 69.3046 17.1377 69.3046 16.5803C69.3046 16.0727 69.1645 15.6597 68.8843 15.3412C68.604 15.0228 68.2353 14.764 67.7781 14.565C67.3208 14.3659 66.8267 14.1917 66.2957 14.0425L64.4373 13.505C63.2573 13.1617 62.3232 12.6715 61.6349 12.0345C60.9466 11.3976 60.6024 10.5641 60.6024 9.534C60.6024 8.67809 60.8311 7.93166 61.2883 7.2947C61.7504 6.65277 62.3699 6.15515 63.1467 5.80184C63.9284 5.44355 64.8011 5.2644 65.7648 5.2644C66.7382 5.2644 67.6035 5.44106 68.3607 5.79437C69.1178 6.14271 69.7176 6.62042 70.1601 7.22752C70.6075 7.83462 70.8435 8.52383 70.8681 9.29514H69.0981Z" fill="#22AAA1"/>
<path d="M72.9512 6.02951H84.3993M78.5814 5.27881V21.0435M86.2761 21.0435L93.4077 6.7802L100.539 20.8558" stroke="#22AAA1" stroke-width="1.75"/>
</svg>
